<svg
        version="1.0"
        xmlns="http://www.w3.org/2000/svg"
        width="512.000000pt"
        height="512.000000pt"
        viewBox="0 0 512.000000 512.000000"
        preserveAspectRatio="xMidYMid meet"
      >
        <g
          transform="translate(0.000000,512.000000) scale(0.100000,-0.100000)"
          fill="#19c8c1"
          stroke="none"
        >
          <path
            d="M650 5105 c-303 -61 -543 -289 -620 -589 -20 -78 -20 -105 -20 -1956
   0 -1851 0 -1878 20 -1956 78 -304 319 -531 628 -590 109 -21 2795 -21 2904 0
   309 59 550 286 628 590 19 77 20 108 20 1190 0 1033 1 1113 17 1136 10 14 214
   271 455 572 l437 546 -244 196 c-134 108 -248 196 -254 196 -5 0 -98 -111
   -207 -247 l-199 -248 -6 270 c-5 246 -7 276 -28 340 -79 239 -255 427 -477
   511 -148 56 -101 54 -1602 53 -1100 -1 -1400 -4 -1452 -14z m2912 -413 c67
   -27 157 -105 193 -166 54 -92 54 -90 56 -606 l1 -480 -805 -1006 c-650 -813
   -806 -1013 -810 -1043 -4 -20 -30 -147 -58 -284 -29 -136 -50 -250 -47 -253 3
   -3 93 20 199 51 107 31 242 71 302 88 l107 32 553 692 c303 381 555 692 560
   692 10 1 8 -1569 -2 -1653 -19 -141 -121 -276 -248 -328 l-58 -23 -1395 0
   -1395 0 -58 23 c-81 33 -168 116 -209 200 l-33 67 0 1865 0 1865 27 57 c29 63
   101 146 155 179 19 12 60 30 91 40 54 17 127 18 1437 16 l1380 -2 57 -23z"
          />
          <path
            d="M955 3951 c-88 -41 -135 -114 -135 -212 0 -111 61 -193 164 -224 74
   -22 2178 -22 2252 0 103 31 164 113 164 224 0 98 -47 171 -135 212 -38 18 -93
   19 -1155 19 -1062 0 -1117 -1 -1155 -19z"
          />
          <path
            d="M1265 2951 c-312 -6 -316 -7 -377 -64 -96 -89 -91 -263 10 -347 73
   -61 65 -60 862 -60 797 0 789 -1 862 60 52 43 78 103 78 179 0 103 -57 184
   -155 221 -36 13 -841 20 -1280 11z"
          />
          <path
            d="M1180 1931 c-218 -6 -233 -10 -292 -64 -96 -89 -91 -263 10 -347 71
   -59 94 -61 589 -58 441 3 449 3 489 25 52 28 111 95 124 142 32 117 -28 242
   -139 288 -40 17 -449 24 -781 14z"
          />
        </g>
      </svg>
